<mxfile host="app.diagrams.net" modified="2022-07-10T07:53:52.663Z" agent="5.0 (Macintosh; Intel Mac OS X 10_15_7) AppleWebKit/537.36 (KHTML, like Gecko) Chrome/103.0.0.0 Safari/537.36" etag="BJ7wP2Rz0jUj6S_67mdc" version="20.0.4" type="github">
  <diagram id="hPPo5z7l4vStJg0VCWu4" name="Page-1">
    <mxGraphModel dx="1527" dy="981" grid="1" gridSize="10" guides="1" tooltips="1" connect="1" arrows="1" fold="1" page="1" pageScale="1" pageWidth="827" pageHeight="1169" background="#F4F1DE" math="0" shadow="0">
      <root>
        <mxCell id="0" />
        <mxCell id="1" parent="0" />
        <mxCell id="Ca8lbo5WVvOkltmJ_hnt-3" value="" style="edgeStyle=orthogonalEdgeStyle;rounded=0;orthogonalLoop=1;jettySize=auto;html=1;" parent="1" source="Ca8lbo5WVvOkltmJ_hnt-1" target="Ca8lbo5WVvOkltmJ_hnt-2" edge="1">
          <mxGeometry relative="1" as="geometry" />
        </mxCell>
        <mxCell id="Ca8lbo5WVvOkltmJ_hnt-1" value="start" style="ellipse;whiteSpace=wrap;html=1;aspect=fixed;" parent="1" vertex="1">
          <mxGeometry x="185" y="80" width="50" height="50" as="geometry" />
        </mxCell>
        <mxCell id="Ca8lbo5WVvOkltmJ_hnt-8" value="" style="edgeStyle=orthogonalEdgeStyle;rounded=0;orthogonalLoop=1;jettySize=auto;html=1;fontSize=6;" parent="1" source="Ca8lbo5WVvOkltmJ_hnt-2" target="Ca8lbo5WVvOkltmJ_hnt-7" edge="1">
          <mxGeometry relative="1" as="geometry" />
        </mxCell>
        <mxCell id="Ca8lbo5WVvOkltmJ_hnt-2" value="&lt;font style=&quot;font-size: 6px&quot;&gt;wms mq通知ofc订单出库：&lt;span style=&quot;background-color: rgb(255 , 255 , 255) ; font-family: &amp;#34;menlo&amp;#34; ; font-size: 6px&quot;&gt;PopOrderOutMessageListener&lt;/span&gt;&lt;/font&gt;" style="rounded=1;whiteSpace=wrap;html=1;fontSize=3;" parent="1" vertex="1">
          <mxGeometry x="110" y="145" width="200" height="60" as="geometry" />
        </mxCell>
        <mxCell id="Ca8lbo5WVvOkltmJ_hnt-10" value="" style="edgeStyle=orthogonalEdgeStyle;rounded=0;orthogonalLoop=1;jettySize=auto;html=1;fontSize=6;" parent="1" source="Ca8lbo5WVvOkltmJ_hnt-7" target="Ca8lbo5WVvOkltmJ_hnt-9" edge="1">
          <mxGeometry relative="1" as="geometry" />
        </mxCell>
        <mxCell id="Ca8lbo5WVvOkltmJ_hnt-11" value="N" style="edgeLabel;html=1;align=center;verticalAlign=middle;resizable=0;points=[];fontSize=6;" parent="Ca8lbo5WVvOkltmJ_hnt-10" vertex="1" connectable="0">
          <mxGeometry x="-0.3839" y="3" relative="1" as="geometry">
            <mxPoint as="offset" />
          </mxGeometry>
        </mxCell>
        <mxCell id="Ca8lbo5WVvOkltmJ_hnt-20" value="" style="edgeStyle=orthogonalEdgeStyle;rounded=0;orthogonalLoop=1;jettySize=auto;html=1;fontSize=6;" parent="1" source="Ca8lbo5WVvOkltmJ_hnt-7" target="Ca8lbo5WVvOkltmJ_hnt-19" edge="1">
          <mxGeometry relative="1" as="geometry" />
        </mxCell>
        <mxCell id="Ca8lbo5WVvOkltmJ_hnt-51" value="Y" style="edgeLabel;html=1;align=center;verticalAlign=middle;resizable=0;points=[];fontSize=6;" parent="Ca8lbo5WVvOkltmJ_hnt-20" vertex="1" connectable="0">
          <mxGeometry x="0.0167" y="-1" relative="1" as="geometry">
            <mxPoint as="offset" />
          </mxGeometry>
        </mxCell>
        <mxCell id="Ca8lbo5WVvOkltmJ_hnt-7" value="订单信息校验" style="rhombus;whiteSpace=wrap;html=1;fontSize=3;rounded=1;" parent="1" vertex="1">
          <mxGeometry x="170" y="250" width="80" height="80" as="geometry" />
        </mxCell>
        <mxCell id="Ca8lbo5WVvOkltmJ_hnt-9" value="校验不通过抛出异常" style="whiteSpace=wrap;html=1;fontSize=3;rounded=1;" parent="1" vertex="1">
          <mxGeometry x="310" y="260" width="120" height="60" as="geometry" />
        </mxCell>
        <mxCell id="Ca8lbo5WVvOkltmJ_hnt-22" value="" style="edgeStyle=orthogonalEdgeStyle;rounded=0;orthogonalLoop=1;jettySize=auto;html=1;fontSize=6;" parent="1" source="Ca8lbo5WVvOkltmJ_hnt-19" target="Ca8lbo5WVvOkltmJ_hnt-21" edge="1">
          <mxGeometry relative="1" as="geometry" />
        </mxCell>
        <mxCell id="Ca8lbo5WVvOkltmJ_hnt-54" value="N" style="edgeLabel;html=1;align=center;verticalAlign=middle;resizable=0;points=[];fontSize=6;" parent="Ca8lbo5WVvOkltmJ_hnt-22" vertex="1" connectable="0">
          <mxGeometry x="-0.1733" relative="1" as="geometry">
            <mxPoint as="offset" />
          </mxGeometry>
        </mxCell>
        <mxCell id="Ca8lbo5WVvOkltmJ_hnt-24" value="" style="edgeStyle=orthogonalEdgeStyle;rounded=0;orthogonalLoop=1;jettySize=auto;html=1;fontSize=6;" parent="1" source="Ca8lbo5WVvOkltmJ_hnt-19" target="Ca8lbo5WVvOkltmJ_hnt-23" edge="1">
          <mxGeometry relative="1" as="geometry" />
        </mxCell>
        <mxCell id="Ca8lbo5WVvOkltmJ_hnt-55" value="Y" style="edgeLabel;html=1;align=center;verticalAlign=middle;resizable=0;points=[];fontSize=6;" parent="Ca8lbo5WVvOkltmJ_hnt-24" vertex="1" connectable="0">
          <mxGeometry x="-0.1196" y="-2" relative="1" as="geometry">
            <mxPoint as="offset" />
          </mxGeometry>
        </mxCell>
        <mxCell id="Ca8lbo5WVvOkltmJ_hnt-19" value="查询面单" style="rhombus;whiteSpace=wrap;html=1;fontSize=3;rounded=1;" parent="1" vertex="1">
          <mxGeometry x="170" y="370" width="80" height="80" as="geometry" />
        </mxCell>
        <mxCell id="Ca8lbo5WVvOkltmJ_hnt-21" value="面单查询失败抛出异常" style="whiteSpace=wrap;html=1;fontSize=3;rounded=1;" parent="1" vertex="1">
          <mxGeometry x="300" y="380" width="120" height="60" as="geometry" />
        </mxCell>
        <mxCell id="Ca8lbo5WVvOkltmJ_hnt-28" value="" style="edgeStyle=orthogonalEdgeStyle;rounded=0;orthogonalLoop=1;jettySize=auto;html=1;fontSize=6;" parent="1" source="Ca8lbo5WVvOkltmJ_hnt-23" target="Ca8lbo5WVvOkltmJ_hnt-27" edge="1">
          <mxGeometry relative="1" as="geometry" />
        </mxCell>
        <mxCell id="Ca8lbo5WVvOkltmJ_hnt-23" value="同步订单出库信息给订单中心" style="whiteSpace=wrap;html=1;fontSize=3;rounded=1;" parent="1" vertex="1">
          <mxGeometry x="150" y="510" width="120" height="60" as="geometry" />
        </mxCell>
        <mxCell id="Ca8lbo5WVvOkltmJ_hnt-30" value="" style="edgeStyle=orthogonalEdgeStyle;rounded=0;orthogonalLoop=1;jettySize=auto;html=1;fontSize=6;" parent="1" source="Ca8lbo5WVvOkltmJ_hnt-27" target="Ca8lbo5WVvOkltmJ_hnt-29" edge="1">
          <mxGeometry relative="1" as="geometry" />
        </mxCell>
        <mxCell id="Ca8lbo5WVvOkltmJ_hnt-31" value="N" style="edgeLabel;html=1;align=center;verticalAlign=middle;resizable=0;points=[];fontSize=6;" parent="Ca8lbo5WVvOkltmJ_hnt-30" vertex="1" connectable="0">
          <mxGeometry x="-0.1512" relative="1" as="geometry">
            <mxPoint y="1" as="offset" />
          </mxGeometry>
        </mxCell>
        <mxCell id="tTkEiqOZEx_asm7Vwfps-5" value="" style="edgeStyle=orthogonalEdgeStyle;rounded=0;orthogonalLoop=1;jettySize=auto;html=1;" edge="1" parent="1" source="Ca8lbo5WVvOkltmJ_hnt-27" target="tTkEiqOZEx_asm7Vwfps-4">
          <mxGeometry relative="1" as="geometry" />
        </mxCell>
        <mxCell id="tTkEiqOZEx_asm7Vwfps-7" value="Y" style="edgeLabel;html=1;align=center;verticalAlign=middle;resizable=0;points=[];" vertex="1" connectable="0" parent="tTkEiqOZEx_asm7Vwfps-5">
          <mxGeometry x="-0.2471" relative="1" as="geometry">
            <mxPoint as="offset" />
          </mxGeometry>
        </mxCell>
        <mxCell id="Ca8lbo5WVvOkltmJ_hnt-27" value="同步批次号开关是否开启" style="rhombus;whiteSpace=wrap;html=1;fontSize=3;rounded=1;fillColor=#fff2cc;strokeColor=#d6b656;" parent="1" vertex="1">
          <mxGeometry x="140" y="610" width="140" height="105" as="geometry" />
        </mxCell>
        <mxCell id="tTkEiqOZEx_asm7Vwfps-21" value="" style="edgeStyle=orthogonalEdgeStyle;rounded=0;orthogonalLoop=1;jettySize=auto;html=1;" edge="1" parent="1" source="Ca8lbo5WVvOkltmJ_hnt-45" target="tTkEiqOZEx_asm7Vwfps-20">
          <mxGeometry relative="1" as="geometry" />
        </mxCell>
        <mxCell id="tTkEiqOZEx_asm7Vwfps-34" value="" style="edgeStyle=orthogonalEdgeStyle;rounded=0;orthogonalLoop=1;jettySize=auto;html=1;" edge="1" parent="1" source="Ca8lbo5WVvOkltmJ_hnt-45" target="tTkEiqOZEx_asm7Vwfps-33">
          <mxGeometry relative="1" as="geometry" />
        </mxCell>
        <mxCell id="Ca8lbo5WVvOkltmJ_hnt-45" value="调用神农查询商品批次号接口" style="rhombus;whiteSpace=wrap;html=1;fontSize=3;fillColor=#fff2cc;strokeColor=#d6b656;rounded=1;" parent="1" vertex="1">
          <mxGeometry x="170" y="1140" width="80" height="70" as="geometry" />
        </mxCell>
        <mxCell id="Ca8lbo5WVvOkltmJ_hnt-29" value="没有开启, 不进行同步。&lt;span style=&quot;background-color: rgb(255 , 255 , 255) ; font-family: &amp;quot;menlo&amp;quot; ; font-size: 9.8pt&quot;&gt;&lt;br&gt;&lt;/span&gt;" style="whiteSpace=wrap;html=1;fontSize=3;rounded=1;fillColor=#ffe6cc;strokeColor=#d79b00;" parent="1" vertex="1">
          <mxGeometry x="410" y="632.5" width="140" height="60" as="geometry" />
        </mxCell>
        <mxCell id="Ca8lbo5WVvOkltmJ_hnt-52" value="" style="edgeStyle=orthogonalEdgeStyle;rounded=0;orthogonalLoop=1;jettySize=auto;html=1;fontSize=6;endArrow=none;" parent="1" source="Ca8lbo5WVvOkltmJ_hnt-27" target="Ca8lbo5WVvOkltmJ_hnt-29" edge="1">
          <mxGeometry relative="1" as="geometry">
            <mxPoint x="279.96825396825375" y="662.4761904761904" as="sourcePoint" />
            <mxPoint x="1210" y="185" as="targetPoint" />
          </mxGeometry>
        </mxCell>
        <mxCell id="Ca8lbo5WVvOkltmJ_hnt-61" style="edgeStyle=orthogonalEdgeStyle;rounded=0;orthogonalLoop=1;jettySize=auto;html=1;entryX=0.5;entryY=0;entryDx=0;entryDy=0;fontSize=6;exitX=0.5;exitY=1;exitDx=0;exitDy=0;" parent="1" source="Ca8lbo5WVvOkltmJ_hnt-70" target="Ca8lbo5WVvOkltmJ_hnt-65" edge="1">
          <mxGeometry relative="1" as="geometry">
            <mxPoint x="210" y="1480" as="sourcePoint" />
          </mxGeometry>
        </mxCell>
        <mxCell id="Ca8lbo5WVvOkltmJ_hnt-62" value="Y" style="edgeLabel;html=1;align=center;verticalAlign=middle;resizable=0;points=[];fontSize=6;" parent="Ca8lbo5WVvOkltmJ_hnt-61" vertex="1" connectable="0">
          <mxGeometry x="0.1018" y="-1" relative="1" as="geometry">
            <mxPoint as="offset" />
          </mxGeometry>
        </mxCell>
        <mxCell id="Ca8lbo5WVvOkltmJ_hnt-65" value="end" style="ellipse;whiteSpace=wrap;html=1;aspect=fixed;fontSize=6;fillColor=#ffe6cc;strokeColor=#d79b00;" parent="1" vertex="1">
          <mxGeometry x="180" y="1530" width="60" height="60" as="geometry" />
        </mxCell>
        <mxCell id="tTkEiqOZEx_asm7Vwfps-19" value="" style="edgeStyle=orthogonalEdgeStyle;rounded=0;orthogonalLoop=1;jettySize=auto;html=1;" edge="1" parent="1" source="Ca8lbo5WVvOkltmJ_hnt-70" target="tTkEiqOZEx_asm7Vwfps-18">
          <mxGeometry relative="1" as="geometry" />
        </mxCell>
        <mxCell id="Ca8lbo5WVvOkltmJ_hnt-70" value="&lt;span style=&quot;font-size: 3px&quot;&gt;调用订单接口同步商品批次号&lt;/span&gt;&lt;br style=&quot;font-size: 3px&quot;&gt;&lt;span style=&quot;font-size: 3px&quot;&gt;syncBatchYnfoToYkq&lt;/span&gt;" style="rhombus;whiteSpace=wrap;html=1;fontSize=6;fillColor=#ffe6cc;strokeColor=#d79b00;" parent="1" vertex="1">
          <mxGeometry x="170" y="1410" width="80" height="70" as="geometry" />
        </mxCell>
        <mxCell id="Ca8lbo5WVvOkltmJ_hnt-79" value="" style="edgeStyle=orthogonalEdgeStyle;rounded=0;orthogonalLoop=1;jettySize=auto;html=1;fontSize=6;" parent="1" source="Ca8lbo5WVvOkltmJ_hnt-74" target="Ca8lbo5WVvOkltmJ_hnt-78" edge="1">
          <mxGeometry relative="1" as="geometry" />
        </mxCell>
        <mxCell id="Ca8lbo5WVvOkltmJ_hnt-74" value="start" style="ellipse;whiteSpace=wrap;html=1;aspect=fixed;fillColor=#ffe6cc;strokeColor=#d79b00;" parent="1" vertex="1">
          <mxGeometry x="1145" y="140" width="55" height="55" as="geometry" />
        </mxCell>
        <mxCell id="Ca8lbo5WVvOkltmJ_hnt-76" value="同步商品批次号给订单" style="text;html=1;strokeColor=none;fillColor=none;align=center;verticalAlign=middle;whiteSpace=wrap;rounded=0;fontSize=6;" parent="1" vertex="1">
          <mxGeometry x="145" y="40" width="130" height="30" as="geometry" />
        </mxCell>
        <mxCell id="Ca8lbo5WVvOkltmJ_hnt-77" value="商品批次号重试" style="text;html=1;strokeColor=none;fillColor=none;align=center;verticalAlign=middle;whiteSpace=wrap;rounded=0;fontSize=6;" parent="1" vertex="1">
          <mxGeometry x="1107.5" y="100" width="130" height="30" as="geometry" />
        </mxCell>
        <mxCell id="GC9s0GSLsCd2T-HA-3s1-24" value="" style="edgeStyle=orthogonalEdgeStyle;rounded=0;orthogonalLoop=1;jettySize=auto;html=1;fontSize=6;entryX=0.5;entryY=0;entryDx=0;entryDy=0;" parent="1" source="Ca8lbo5WVvOkltmJ_hnt-78" target="tTkEiqOZEx_asm7Vwfps-40" edge="1">
          <mxGeometry relative="1" as="geometry">
            <mxPoint x="1172.5" y="320" as="targetPoint" />
          </mxGeometry>
        </mxCell>
        <mxCell id="Ca8lbo5WVvOkltmJ_hnt-78" value="定时任务 10 分钟执行一次, 筛选失败的数据重新推送HeartbeatCheckJob#checkHttpPostRequest" style="whiteSpace=wrap;html=1;fillColor=#ffe6cc;strokeColor=#d79b00;" parent="1" vertex="1">
          <mxGeometry x="1038.75" y="220" width="267.5" height="60" as="geometry" />
        </mxCell>
        <mxCell id="tTkEiqOZEx_asm7Vwfps-47" value="Yes" style="edgeStyle=orthogonalEdgeStyle;rounded=0;orthogonalLoop=1;jettySize=auto;html=1;exitX=1;exitY=0.5;exitDx=0;exitDy=0;" edge="1" parent="1" source="GC9s0GSLsCd2T-HA-3s1-36" target="GC9s0GSLsCd2T-HA-3s1-53">
          <mxGeometry relative="1" as="geometry" />
        </mxCell>
        <mxCell id="tTkEiqOZEx_asm7Vwfps-54" value="" style="edgeStyle=orthogonalEdgeStyle;rounded=0;orthogonalLoop=1;jettySize=auto;html=1;" edge="1" parent="1" source="GC9s0GSLsCd2T-HA-3s1-36" target="tTkEiqOZEx_asm7Vwfps-53">
          <mxGeometry relative="1" as="geometry" />
        </mxCell>
        <mxCell id="tTkEiqOZEx_asm7Vwfps-55" value="Yes" style="edgeLabel;html=1;align=center;verticalAlign=middle;resizable=0;points=[];" vertex="1" connectable="0" parent="tTkEiqOZEx_asm7Vwfps-54">
          <mxGeometry x="-0.5206" y="-2" relative="1" as="geometry">
            <mxPoint as="offset" />
          </mxGeometry>
        </mxCell>
        <mxCell id="GC9s0GSLsCd2T-HA-3s1-36" value="查询推送成功相同订单数据是否等于5且是推送类型为 retry_type = 4 商品批次号推送失败" style="rhombus;whiteSpace=wrap;html=1;align=left;fillColor=#ffe6cc;strokeColor=#d79b00;" parent="1" vertex="1">
          <mxGeometry x="1085" y="505" width="175" height="65" as="geometry" />
        </mxCell>
        <mxCell id="tTkEiqOZEx_asm7Vwfps-45" style="edgeStyle=orthogonalEdgeStyle;rounded=0;orthogonalLoop=1;jettySize=auto;html=1;exitX=1;exitY=0.5;exitDx=0;exitDy=0;entryX=0;entryY=0.5;entryDx=0;entryDy=0;" edge="1" parent="1" source="GC9s0GSLsCd2T-HA-3s1-53" target="GC9s0GSLsCd2T-HA-3s1-57">
          <mxGeometry relative="1" as="geometry" />
        </mxCell>
        <mxCell id="GC9s0GSLsCd2T-HA-3s1-53" value="发送告警信息到告警群里" style="whiteSpace=wrap;html=1;align=left;fillColor=#ffe6cc;strokeColor=#d79b00;" parent="1" vertex="1">
          <mxGeometry x="1382.5" y="507.5" width="120" height="60" as="geometry" />
        </mxCell>
        <mxCell id="GC9s0GSLsCd2T-HA-3s1-57" value="end" style="ellipse;whiteSpace=wrap;html=1;align=center;fillColor=#ffe6cc;strokeColor=#d79b00;" parent="1" vertex="1">
          <mxGeometry x="1560" y="507.5" width="61.25" height="60" as="geometry" />
        </mxCell>
        <mxCell id="tTkEiqOZEx_asm7Vwfps-9" value="" style="edgeStyle=orthogonalEdgeStyle;rounded=0;orthogonalLoop=1;jettySize=auto;html=1;" edge="1" parent="1" source="tTkEiqOZEx_asm7Vwfps-4" target="tTkEiqOZEx_asm7Vwfps-8">
          <mxGeometry relative="1" as="geometry" />
        </mxCell>
        <mxCell id="tTkEiqOZEx_asm7Vwfps-25" value="No" style="edgeLabel;html=1;align=center;verticalAlign=middle;resizable=0;points=[];" vertex="1" connectable="0" parent="tTkEiqOZEx_asm7Vwfps-9">
          <mxGeometry x="-0.075" y="2" relative="1" as="geometry">
            <mxPoint y="1" as="offset" />
          </mxGeometry>
        </mxCell>
        <mxCell id="tTkEiqOZEx_asm7Vwfps-13" value="" style="edgeStyle=orthogonalEdgeStyle;rounded=0;orthogonalLoop=1;jettySize=auto;html=1;" edge="1" parent="1" source="tTkEiqOZEx_asm7Vwfps-4" target="tTkEiqOZEx_asm7Vwfps-12">
          <mxGeometry relative="1" as="geometry" />
        </mxCell>
        <mxCell id="tTkEiqOZEx_asm7Vwfps-26" value="Yes" style="edgeLabel;html=1;align=center;verticalAlign=middle;resizable=0;points=[];" vertex="1" connectable="0" parent="tTkEiqOZEx_asm7Vwfps-13">
          <mxGeometry x="-0.3077" y="-2" relative="1" as="geometry">
            <mxPoint y="1" as="offset" />
          </mxGeometry>
        </mxCell>
        <mxCell id="tTkEiqOZEx_asm7Vwfps-4" value="查询 OFC 订单表，并记录LOP订单号" style="rhombus;whiteSpace=wrap;html=1;fontSize=3;fillColor=#fff2cc;strokeColor=#d6b656;rounded=1;" vertex="1" parent="1">
          <mxGeometry x="150" y="757.5" width="120" height="60" as="geometry" />
        </mxCell>
        <mxCell id="tTkEiqOZEx_asm7Vwfps-8" value="失败表明订单从未支付的时候就有问题，打印 error 日志，需要开发手动介入了" style="whiteSpace=wrap;html=1;fontSize=3;fillColor=#fff2cc;strokeColor=#d6b656;rounded=1;" vertex="1" parent="1">
          <mxGeometry x="350" y="757.5" width="180" height="60" as="geometry" />
        </mxCell>
        <mxCell id="tTkEiqOZEx_asm7Vwfps-17" value="" style="edgeStyle=orthogonalEdgeStyle;rounded=0;orthogonalLoop=1;jettySize=auto;html=1;" edge="1" parent="1" source="tTkEiqOZEx_asm7Vwfps-12" target="tTkEiqOZEx_asm7Vwfps-16">
          <mxGeometry relative="1" as="geometry" />
        </mxCell>
        <mxCell id="tTkEiqOZEx_asm7Vwfps-27" value="No" style="edgeLabel;html=1;align=center;verticalAlign=middle;resizable=0;points=[];" vertex="1" connectable="0" parent="tTkEiqOZEx_asm7Vwfps-17">
          <mxGeometry x="-0.0889" y="1" relative="1" as="geometry">
            <mxPoint y="1" as="offset" />
          </mxGeometry>
        </mxCell>
        <mxCell id="tTkEiqOZEx_asm7Vwfps-23" value="" style="edgeStyle=orthogonalEdgeStyle;rounded=0;orthogonalLoop=1;jettySize=auto;html=1;" edge="1" parent="1" source="tTkEiqOZEx_asm7Vwfps-12" target="tTkEiqOZEx_asm7Vwfps-22">
          <mxGeometry relative="1" as="geometry" />
        </mxCell>
        <mxCell id="tTkEiqOZEx_asm7Vwfps-28" value="Yes" style="edgeLabel;html=1;align=center;verticalAlign=middle;resizable=0;points=[];" vertex="1" connectable="0" parent="tTkEiqOZEx_asm7Vwfps-23">
          <mxGeometry x="-0.3895" y="-3" relative="1" as="geometry">
            <mxPoint y="1" as="offset" />
          </mxGeometry>
        </mxCell>
        <mxCell id="tTkEiqOZEx_asm7Vwfps-12" value="根据订单号调用订单查询详情接口查询订单信息" style="rhombus;whiteSpace=wrap;html=1;fontSize=3;fillColor=#fff2cc;strokeColor=#d6b656;rounded=1;" vertex="1" parent="1">
          <mxGeometry x="140" y="882.5" width="140" height="80" as="geometry" />
        </mxCell>
        <mxCell id="tTkEiqOZEx_asm7Vwfps-16" value="查询失败，记录失败订单数据：o2o_agg_b2c_order_retry_log" style="whiteSpace=wrap;html=1;fontSize=3;fillColor=#fff2cc;strokeColor=#d6b656;rounded=1;" vertex="1" parent="1">
          <mxGeometry x="370" y="892.5" width="200" height="60" as="geometry" />
        </mxCell>
        <mxCell id="tTkEiqOZEx_asm7Vwfps-18" value="&lt;span style=&quot;font-weight: 400;&quot;&gt;调用订单同步接口失败，&lt;/span&gt;&lt;span style=&quot;font-size: 3px; font-weight: 400;&quot;&gt;插入重试数据表&lt;br&gt;&lt;/span&gt;&lt;span style=&quot;font-size: 3px; font-weight: 400;&quot;&gt;o2o_agg_b2c_order_retry_log&lt;/span&gt;&lt;br style=&quot;font-size: 3px; font-weight: 400;&quot;&gt;&lt;span style=&quot;font-weight: 400; color: rgba(0, 0, 0, 0); font-family: monospace; font-size: 0px; text-align: start;&quot;&gt;%3CmxGraphModel%3E%3Croot%3E%3CmxCell%20id%3D%220%22%2F%3E%3CmxCell%20id%3D%221%22%20parent%3D%220%22%2F%3E%3CmxCell%20id%3D%222%22%20value%3D%22%E6%9F%A5%E8%AF%A2%E5%A4%B1%E8%B4%A5%EF%BC%8C%E8%AE%B0%E5%BD%95%E5%A4%B1%E8%B4%A5%E8%AE%A2%E5%8D%95%E6%95%B0%E6%8D%AE%EF%BC%9Ao2o_agg_b2c_order_retry_log%22%20style%3D%22whiteSpace%3Dwrap%3Bhtml%3D1%3BfontSize%3D3%3BfillColor%3D%23fff2cc%3BstrokeColor%3D%23d6b656%3Brounded%3D1%3B%22%20vertex%3D%221%22%20parent%3D%221%22%3E%3CmxGeometry%20x%3D%22370%22%20y%3D%22892.5%22%20width%3D%22200%22%20height%3D%2260%22%20as%3D%22geometry%22%2F%3E%3C%2FmxCell%3E%3C%2Froot%3E%3C%2FmxGraphModel&lt;/span&gt;" style="whiteSpace=wrap;html=1;fontSize=6;fillColor=#ffe6cc;strokeColor=#d79b00;fontStyle=1" vertex="1" parent="1">
          <mxGeometry x="310" y="1415" width="220" height="60" as="geometry" />
        </mxCell>
        <mxCell id="tTkEiqOZEx_asm7Vwfps-20" value="查询失败，记录失败订单数据：o2o_agg_b2c_order_retry_log" style="whiteSpace=wrap;html=1;fontSize=3;fillColor=#fff2cc;strokeColor=#d6b656;rounded=1;" vertex="1" parent="1">
          <mxGeometry x="310" y="1145" width="180" height="60" as="geometry" />
        </mxCell>
        <mxCell id="tTkEiqOZEx_asm7Vwfps-30" value="" style="edgeStyle=orthogonalEdgeStyle;rounded=0;orthogonalLoop=1;jettySize=auto;html=1;" edge="1" parent="1" source="tTkEiqOZEx_asm7Vwfps-22" target="tTkEiqOZEx_asm7Vwfps-29">
          <mxGeometry relative="1" as="geometry" />
        </mxCell>
        <mxCell id="tTkEiqOZEx_asm7Vwfps-31" value="No" style="edgeLabel;html=1;align=center;verticalAlign=middle;resizable=0;points=[];" vertex="1" connectable="0" parent="tTkEiqOZEx_asm7Vwfps-30">
          <mxGeometry x="-0.4667" y="2" relative="1" as="geometry">
            <mxPoint as="offset" />
          </mxGeometry>
        </mxCell>
        <mxCell id="tTkEiqOZEx_asm7Vwfps-32" value="Yes" style="edgeStyle=orthogonalEdgeStyle;rounded=0;orthogonalLoop=1;jettySize=auto;html=1;exitX=0.5;exitY=1;exitDx=0;exitDy=0;" edge="1" parent="1" source="tTkEiqOZEx_asm7Vwfps-22" target="Ca8lbo5WVvOkltmJ_hnt-45">
          <mxGeometry relative="1" as="geometry" />
        </mxCell>
        <mxCell id="tTkEiqOZEx_asm7Vwfps-22" value="校验订单数据，订单参数是否缺失" style="rhombus;whiteSpace=wrap;html=1;fontSize=3;fillColor=#fff2cc;strokeColor=#d6b656;rounded=1;" vertex="1" parent="1">
          <mxGeometry x="170" y="1010" width="80" height="80" as="geometry" />
        </mxCell>
        <mxCell id="tTkEiqOZEx_asm7Vwfps-29" value="参数校验不通哟，记录失败订单数据：o2o_agg_b2c_order_retry_log" style="whiteSpace=wrap;html=1;fontSize=3;fillColor=#fff2cc;strokeColor=#d6b656;rounded=1;" vertex="1" parent="1">
          <mxGeometry x="310" y="1020" width="220" height="60" as="geometry" />
        </mxCell>
        <mxCell id="tTkEiqOZEx_asm7Vwfps-36" value="" style="edgeStyle=orthogonalEdgeStyle;rounded=0;orthogonalLoop=1;jettySize=auto;html=1;" edge="1" parent="1" source="tTkEiqOZEx_asm7Vwfps-33" target="tTkEiqOZEx_asm7Vwfps-35">
          <mxGeometry relative="1" as="geometry" />
        </mxCell>
        <mxCell id="tTkEiqOZEx_asm7Vwfps-38" value="No" style="edgeLabel;html=1;align=center;verticalAlign=middle;resizable=0;points=[];" vertex="1" connectable="0" parent="tTkEiqOZEx_asm7Vwfps-36">
          <mxGeometry x="-0.1" y="-2" relative="1" as="geometry">
            <mxPoint as="offset" />
          </mxGeometry>
        </mxCell>
        <mxCell id="tTkEiqOZEx_asm7Vwfps-37" style="edgeStyle=orthogonalEdgeStyle;rounded=0;orthogonalLoop=1;jettySize=auto;html=1;exitX=0.5;exitY=1;exitDx=0;exitDy=0;entryX=0.5;entryY=0;entryDx=0;entryDy=0;" edge="1" parent="1" source="tTkEiqOZEx_asm7Vwfps-33" target="Ca8lbo5WVvOkltmJ_hnt-70">
          <mxGeometry relative="1" as="geometry" />
        </mxCell>
        <mxCell id="tTkEiqOZEx_asm7Vwfps-39" value="Yes" style="edgeLabel;html=1;align=center;verticalAlign=middle;resizable=0;points=[];" vertex="1" connectable="0" parent="tTkEiqOZEx_asm7Vwfps-37">
          <mxGeometry x="-0.3538" y="-1" relative="1" as="geometry">
            <mxPoint as="offset" />
          </mxGeometry>
        </mxCell>
        <mxCell id="tTkEiqOZEx_asm7Vwfps-33" value="构建商品批次号信息" style="rhombus;whiteSpace=wrap;html=1;fontSize=3;fillColor=#fff2cc;strokeColor=#d6b656;rounded=1;" vertex="1" parent="1">
          <mxGeometry x="170" y="1285" width="80" height="80" as="geometry" />
        </mxCell>
        <mxCell id="tTkEiqOZEx_asm7Vwfps-35" value="构建失败，记录失败订单数据：o2o_agg_b2c_order_retry_log" style="whiteSpace=wrap;html=1;fontSize=3;fillColor=#fff2cc;strokeColor=#d6b656;rounded=1;" vertex="1" parent="1">
          <mxGeometry x="310" y="1295" width="180" height="60" as="geometry" />
        </mxCell>
        <mxCell id="tTkEiqOZEx_asm7Vwfps-43" value="" style="edgeStyle=orthogonalEdgeStyle;rounded=0;orthogonalLoop=1;jettySize=auto;html=1;" edge="1" parent="1" source="tTkEiqOZEx_asm7Vwfps-40" target="tTkEiqOZEx_asm7Vwfps-42">
          <mxGeometry relative="1" as="geometry" />
        </mxCell>
        <mxCell id="tTkEiqOZEx_asm7Vwfps-50" value="" style="edgeStyle=orthogonalEdgeStyle;rounded=0;orthogonalLoop=1;jettySize=auto;html=1;" edge="1" parent="1" source="tTkEiqOZEx_asm7Vwfps-40" target="tTkEiqOZEx_asm7Vwfps-49">
          <mxGeometry relative="1" as="geometry" />
        </mxCell>
        <mxCell id="tTkEiqOZEx_asm7Vwfps-40" value="查询&amp;nbsp;&lt;span style=&quot;font-size: 3px;&quot;&gt;o2o_agg_b2c_order_retry_log 表中&lt;br&gt;重试数据&lt;br&gt;&lt;/span&gt;" style="rhombus;whiteSpace=wrap;html=1;" vertex="1" parent="1">
          <mxGeometry x="1038.75" y="310" width="267.5" height="60" as="geometry" />
        </mxCell>
        <mxCell id="tTkEiqOZEx_asm7Vwfps-44" style="edgeStyle=orthogonalEdgeStyle;rounded=0;orthogonalLoop=1;jettySize=auto;html=1;exitX=0.5;exitY=1;exitDx=0;exitDy=0;entryX=0.5;entryY=0;entryDx=0;entryDy=0;" edge="1" parent="1" source="tTkEiqOZEx_asm7Vwfps-42" target="GC9s0GSLsCd2T-HA-3s1-36">
          <mxGeometry relative="1" as="geometry" />
        </mxCell>
        <mxCell id="tTkEiqOZEx_asm7Vwfps-42" value="更新查询到推送失败的订单，将失败状态retry_status置为1推送成功" style="whiteSpace=wrap;html=1;" vertex="1" parent="1">
          <mxGeometry x="1093.75" y="400" width="157.5" height="50" as="geometry" />
        </mxCell>
        <mxCell id="tTkEiqOZEx_asm7Vwfps-49" value="end" style="ellipse;whiteSpace=wrap;html=1;" vertex="1" parent="1">
          <mxGeometry x="820" y="310" width="65" height="60" as="geometry" />
        </mxCell>
        <mxCell id="tTkEiqOZEx_asm7Vwfps-57" value="" style="edgeStyle=orthogonalEdgeStyle;rounded=0;orthogonalLoop=1;jettySize=auto;html=1;" edge="1" parent="1" source="tTkEiqOZEx_asm7Vwfps-53" target="tTkEiqOZEx_asm7Vwfps-56">
          <mxGeometry relative="1" as="geometry" />
        </mxCell>
        <mxCell id="tTkEiqOZEx_asm7Vwfps-53" value="重试同步商品批次号信息" style="whiteSpace=wrap;html=1;align=left;fillColor=#ffe6cc;strokeColor=#d79b00;" vertex="1" parent="1">
          <mxGeometry x="1112.5" y="610" width="120" height="60" as="geometry" />
        </mxCell>
        <mxCell id="tTkEiqOZEx_asm7Vwfps-59" value="" style="edgeStyle=orthogonalEdgeStyle;rounded=0;orthogonalLoop=1;jettySize=auto;html=1;" edge="1" parent="1" source="tTkEiqOZEx_asm7Vwfps-56" target="tTkEiqOZEx_asm7Vwfps-58">
          <mxGeometry relative="1" as="geometry" />
        </mxCell>
        <mxCell id="tTkEiqOZEx_asm7Vwfps-61" value="No" style="edgeLabel;html=1;align=center;verticalAlign=middle;resizable=0;points=[];" vertex="1" connectable="0" parent="tTkEiqOZEx_asm7Vwfps-59">
          <mxGeometry x="-0.0278" relative="1" as="geometry">
            <mxPoint as="offset" />
          </mxGeometry>
        </mxCell>
        <mxCell id="tTkEiqOZEx_asm7Vwfps-66" style="edgeStyle=orthogonalEdgeStyle;rounded=0;orthogonalLoop=1;jettySize=auto;html=1;" edge="1" parent="1" source="tTkEiqOZEx_asm7Vwfps-56">
          <mxGeometry relative="1" as="geometry">
            <mxPoint x="270" y="740" as="targetPoint" />
          </mxGeometry>
        </mxCell>
        <mxCell id="tTkEiqOZEx_asm7Vwfps-56" value="查询OFC订单表获取LOP订单号 extJson自字段" style="rhombus;whiteSpace=wrap;html=1;align=left;fillColor=#ffe6cc;strokeColor=#d79b00;" vertex="1" parent="1">
          <mxGeometry x="1098.75" y="700" width="147.5" height="80" as="geometry" />
        </mxCell>
        <mxCell id="tTkEiqOZEx_asm7Vwfps-60" style="edgeStyle=orthogonalEdgeStyle;rounded=0;orthogonalLoop=1;jettySize=auto;html=1;" edge="1" parent="1" source="tTkEiqOZEx_asm7Vwfps-58">
          <mxGeometry relative="1" as="geometry">
            <mxPoint x="1230" y="200" as="targetPoint" />
            <Array as="points">
              <mxPoint x="1640" y="740" />
              <mxPoint x="1640" y="200" />
              <mxPoint x="1230" y="200" />
            </Array>
          </mxGeometry>
        </mxCell>
        <mxCell id="tTkEiqOZEx_asm7Vwfps-58" value="获取失败，插入重试表&lt;span style=&quot;font-size: 3px; text-align: center;&quot;&gt;o2o_agg_b2c_order_retry_log&lt;/span&gt;" style="whiteSpace=wrap;html=1;align=left;fillColor=#ffe6cc;strokeColor=#d79b00;" vertex="1" parent="1">
          <mxGeometry x="1340" y="710" width="170" height="60" as="geometry" />
        </mxCell>
      </root>
    </mxGraphModel>
  </diagram>
</mxfile>